<svg xmlns="http://www.w3.org/2000/svg" xmlns:xlink="http://www.w3.org/1999/xlink" width="2079" zoomAndPan="magnify" viewBox="0 0 1559.25 1559.249931" height="2079" preserveAspectRatio="xMidYMid meet" version="1.0"><defs><clipPath id="d12dd4d853"><path d="M 0 0 L 1558.5 0 L 1558.5 1558.5 L 0 1558.5 Z M 0 0 " clip-rule="nonzero"/></clipPath><clipPath id="54d5b0e95f"><path d="M 69.296875 69.296875 L 1489.199219 69.296875 L 1489.199219 1489.199219 L 69.296875 1489.199219 Z M 69.296875 69.296875 " clip-rule="nonzero"/></clipPath><clipPath id="ea5bf47969"><path d="M 779.25 69.296875 C 387.152344 69.296875 69.296875 387.152344 69.296875 779.25 C 69.296875 1171.34375 387.152344 1489.199219 779.25 1489.199219 C 1171.34375 1489.199219 1489.199219 1171.34375 1489.199219 779.25 C 1489.199219 387.152344 1171.34375 69.296875 779.25 69.296875 Z M 779.25 69.296875 " clip-rule="nonzero"/></clipPath><clipPath id="58aa231f84"><path d="M 936 79 L 1502 79 L 1502 651 L 936 651 Z M 936 79 " clip-rule="nonzero"/></clipPath><clipPath id="c3c6c1c618"><path d="M 1241.488281 69.300781 L 1511.039062 314.894531 L 1195.410156 661.308594 L 925.859375 415.714844 Z M 1241.488281 69.300781 " clip-rule="nonzero"/></clipPath><clipPath id="23e05eb3a4"><path d="M 1259.222656 85.457031 L 1493.304688 298.734375 C 1498.007812 303.019531 1500.816406 309 1501.109375 315.355469 C 1501.40625 321.710938 1499.164062 327.925781 1494.878906 332.628906 L 1212.304688 642.769531 C 1208.019531 647.472656 1202.039062 650.28125 1195.683594 650.574219 C 1189.328125 650.871094 1183.113281 648.628906 1178.410156 644.34375 L 944.328125 431.066406 C 939.625 426.78125 936.816406 420.800781 936.519531 414.445312 C 936.226562 408.089844 938.46875 401.878906 942.753906 397.171875 L 1225.328125 87.035156 C 1229.613281 82.328125 1235.59375 79.519531 1241.949219 79.226562 C 1248.304688 78.929688 1254.519531 81.171875 1259.222656 85.457031 Z M 1259.222656 85.457031 " clip-rule="nonzero"/></clipPath><clipPath id="b7aeb2fb1a"><path d="M 0.03125 0 L 565.4375 0 L 565.4375 572 L 0.03125 572 Z M 0.03125 0 " clip-rule="nonzero"/></clipPath><clipPath id="69b74667f5"><path d="M 305.488281 -9.699219 L 575.039062 235.894531 L 259.410156 582.308594 L -10.140625 336.714844 Z M 305.488281 -9.699219 " clip-rule="nonzero"/></clipPath><clipPath id="e8c6047d73"><path d="M 323.222656 6.457031 L 557.304688 219.734375 C 562.007812 224.019531 564.816406 230 565.109375 236.355469 C 565.40625 242.710938 563.164062 248.925781 558.878906 253.628906 L 276.304688 563.769531 C 272.019531 568.472656 266.039062 571.28125 259.683594 571.574219 C 253.328125 571.871094 247.113281 569.628906 242.410156 565.34375 L 8.328125 352.066406 C 3.625 347.78125 0.816406 341.800781 0.519531 335.445312 C 0.226562 329.089844 2.46875 322.878906 6.753906 318.171875 L 289.328125 8.035156 C 293.613281 3.328125 299.59375 0.519531 305.949219 0.226562 C 312.304688 -0.0703125 318.519531 2.171875 323.222656 6.457031 Z M 323.222656 6.457031 " clip-rule="nonzero"/></clipPath><clipPath id="a84ab2b4c5"><rect x="0" width="566" y="0" height="572"/></clipPath><clipPath id="8ab982551b"><rect x="0" width="1559" y="0" height="1559"/></clipPath></defs><g clip-path="url(#d12dd4d853)"><g transform="matrix(1, 0, 0, 1, 0, 0.000000000000078219)"><g clip-path="url(#8ab982551b)"><g clip-path="url(#54d5b0e95f)"><g clip-path="url(#ea5bf47969)"><path stroke-linecap="butt" transform="matrix(0.749733, 0, 0, 0.749733, 69.298666, 69.298612)" fill="none" stroke-linejoin="miter" d="M 946.938755 -0.00231653 C 423.955772 -0.00231653 -0.00238921 423.955845 -0.00238921 946.938828 C -0.00238921 1469.916601 423.955772 1893.874762 946.938755 1893.874762 C 1469.916528 1893.874762 1893.874689 1469.916601 1893.874689 946.938828 C 1893.874689 423.955845 1469.916528 -0.00231653 946.938755 -0.00231653 Z M 946.938755 -0.00231653 " stroke="#7ed957" stroke-width="66" stroke-opacity="1" stroke-miterlimit="4"/></g></g><g clip-path="url(#58aa231f84)"><g clip-path="url(#c3c6c1c618)"><g clip-path="url(#23e05eb3a4)"><g transform="matrix(1, 0, 0, 1, 936, 79)"><g clip-path="url(#a84ab2b4c5)"><g clip-path="url(#b7aeb2fb1a)"><g clip-path="url(#69b74667f5)"><g clip-path="url(#e8c6047d73)"><path fill="#ffffff" d="M 305.488281 -9.699219 L 575.039062 235.894531 L 260.371094 581.253906 L -9.179688 335.660156 Z M 305.488281 -9.699219 " fill-opacity="1" fill-rule="nonzero"/></g></g></g></g></g></g></g></g><path fill="#7ed957" d="M 1463.925781 156.417969 L 1428.324219 164.632812 C 1406.460938 171.164062 1383.246094 180.660156 1358.679688 193.113281 L 1320.816406 214.015625 C 1294.894531 229.429688 1267.625 247.804688 1239 269.140625 C 1181.75 311.8125 1119.089844 366.328125 1051.023438 432.6875 C 884.433594 599.601562 736.703125 782.972656 607.828125 982.804688 C 584.953125 934.628906 550.78125 877.96875 505.308594 812.824219 C 481.097656 780.007812 456.167969 755.261719 430.515625 738.589844 C 401.894531 735.140625 354.867188 756.351562 289.429688 802.222656 C 285.261719 808.515625 284.238281 813.394531 286.367188 816.859375 C 345.117188 876.902344 386.175781 926.789062 409.542969 966.515625 C 453.15625 1034.90625 498.90625 1130.835938 546.796875 1254.292969 C 549.46875 1258.441406 552.828125 1259.839844 556.882812 1258.496094 L 713.039062 1160.183594 C 720.46875 1155.058594 727.574219 1148.226562 734.359375 1139.683594 C 812.871094 919.023438 906.511719 739.5625 1015.28125 601.304688 C 1048.058594 554.703125 1128.859375 472.46875 1257.683594 354.601562 C 1309.851562 308.109375 1384.152344 251.691406 1480.585938 185.34375 C 1486.183594 172.6875 1480.628906 163.046875 1463.925781 156.417969 " fill-opacity="0.996" fill-rule="nonzero"/></g></g></g></svg>
