<svg xmlns="http://www.w3.org/2000/svg" xmlns:xlink="http://www.w3.org/1999/xlink" width="2079" zoomAndPan="magnify" viewBox="0 0 1559.25 1559.249931" height="2079" preserveAspectRatio="xMidYMid meet" version="1.0"><defs><g/><clipPath id="bad70a0721"><path d="M 42 0 L 1558.5 0 L 1558.5 1558.5 L 42 1558.5 Z M 42 0 " clip-rule="nonzero"/></clipPath><clipPath id="a970417ee2"><path d="M 0.765625 0 L 1435 0 L 1435 1185 L 0.765625 1185 Z M 0.765625 0 " clip-rule="nonzero"/></clipPath><clipPath id="37e2f517d0"><path d="M 0.765625 0 L 1414 0 L 1414 1392 L 0.765625 1392 Z M 0.765625 0 " clip-rule="nonzero"/></clipPath><clipPath id="70bd6114ec"><path d="M 4 378 L 1516.5 378 L 1516.5 1558.5 L 4 1558.5 Z M 4 378 " clip-rule="nonzero"/></clipPath><clipPath id="33250be55a"><path d="M 0.765625 293 L 1516.5 293 L 1516.5 1558.5 L 0.765625 1558.5 Z M 0.765625 293 " clip-rule="nonzero"/></clipPath><clipPath id="f51404cc74"><path d="M 115 900 L 779 900 L 779 1558.5 L 115 1558.5 Z M 115 900 " clip-rule="nonzero"/></clipPath><clipPath id="0a9e27a931"><path d="M 770 864 L 1516.5 864 L 1516.5 1346 L 770 1346 Z M 770 864 " clip-rule="nonzero"/></clipPath><clipPath id="0b6cb4b007"><rect x="0" width="767" y="0" height="604"/></clipPath><clipPath id="5d16f8197b"><rect x="0" width="1517" y="0" height="1559"/></clipPath></defs><g clip-path="url(#bad70a0721)"><g transform="matrix(1, 0, 0, 1, 42, 0.000000000000078219)"><g clip-path="url(#5d16f8197b)"><path fill="#a97c50" d="M 5.703125 671.503906 L 503.386719 90.425781 C 505.558594 87.894531 507.832031 85.449219 510.203125 83.101562 C 512.570312 80.75 515.03125 78.496094 517.582031 76.34375 C 520.132812 74.1875 522.765625 72.140625 525.484375 70.199219 C 528.199219 68.257812 530.988281 66.425781 533.847656 64.707031 C 536.710938 62.988281 539.636719 61.390625 542.628906 59.90625 C 545.621094 58.421875 548.664062 57.0625 551.765625 55.820312 C 554.863281 54.582031 558.007812 53.46875 561.199219 52.484375 C 564.386719 51.496094 567.613281 50.636719 570.871094 49.910156 C 574.128906 49.183594 577.410156 48.585938 580.71875 48.121094 C 584.023438 47.65625 587.34375 47.324219 590.675781 47.128906 C 594.007812 46.929688 597.34375 46.863281 600.679688 46.933594 C 604.019531 47.003906 607.347656 47.207031 610.671875 47.542969 C 613.992188 47.878906 617.292969 48.351562 620.578125 48.953125 C 623.863281 49.554688 627.117188 50.285156 630.34375 51.148438 C 633.566406 52.011719 636.753906 53.003906 639.898438 54.121094 C 643.042969 55.238281 646.140625 56.484375 649.183594 57.851562 L 1347.050781 371.570312 C 1347.300781 371.6875 1347.535156 371.828125 1347.757812 371.996094 C 1347.976562 372.160156 1348.175781 372.347656 1348.359375 372.558594 C 1348.539062 372.765625 1348.695312 372.992188 1348.828125 373.234375 C 1348.964844 373.476562 1349.070312 373.726562 1349.148438 373.992188 C 1349.230469 374.257812 1349.28125 374.527344 1349.300781 374.800781 C 1349.324219 375.078125 1349.320312 375.351562 1349.28125 375.625 C 1349.246094 375.898438 1349.183594 376.167969 1349.089844 376.429688 C 1349 376.6875 1348.878906 376.9375 1348.734375 377.171875 L 941.085938 1036.589844 L 658.941406 1099.695312 L 6.425781 677.285156 C 6.195312 677.128906 5.984375 676.953125 5.792969 676.753906 C 5.601562 676.558594 5.433594 676.339844 5.289062 676.105469 C 5.140625 675.871094 5.023438 675.621094 4.933594 675.359375 C 4.839844 675.101562 4.777344 674.832031 4.742188 674.558594 C 4.707031 674.285156 4.703125 674.011719 4.730469 673.734375 C 4.753906 673.460938 4.808594 673.191406 4.890625 672.925781 C 4.972656 672.664062 5.082031 672.410156 5.21875 672.171875 C 5.355469 671.933594 5.515625 671.710938 5.703125 671.503906 Z M 5.703125 671.503906 " fill-opacity="1" fill-rule="nonzero"/><g clip-path="url(#a970417ee2)"><path stroke-linecap="butt" transform="matrix(6.022302, 0, 0, 6.021527, -782.49701, -774.867082)" fill="none" stroke-linejoin="miter" d="M 130.880202 240.200045 L 213.52029 143.699912 C 213.880929 143.279546 214.258432 142.873451 214.652151 142.483573 C 215.045221 142.093047 215.453858 141.718739 215.877414 141.361298 C 216.30097 141.003207 216.738147 140.663281 217.189594 140.34087 C 217.640392 140.018459 218.103515 139.714212 218.578312 139.428778 C 219.053759 139.143344 219.539583 138.87802 220.036434 138.631508 C 220.533285 138.384997 221.038568 138.159244 221.553581 137.952953 C 222.067945 137.747311 222.590093 137.562427 223.120024 137.398951 C 223.649307 137.234827 224.185076 137.092109 224.726034 136.971449 C 225.266992 136.850788 225.811842 136.751534 226.361232 136.674337 C 226.909973 136.59714 227.461309 136.542 228.014591 136.509564 C 228.567873 136.47648 229.121804 136.465451 229.675735 136.477128 C 230.230314 136.488805 230.782947 136.522538 231.334932 136.578328 C 231.886268 136.634117 232.434361 136.712612 232.979859 136.812514 C 233.525358 136.912416 234.065667 137.033725 234.601436 137.177091 C 235.136556 137.320457 235.665839 137.48523 236.187987 137.670763 C 236.710134 137.856295 237.224498 138.063235 237.729782 138.290285 L 353.610247 190.389821 C 353.651759 190.409282 353.690677 190.432636 353.727649 190.460531 C 353.763972 190.487777 353.797052 190.518915 353.827538 190.553946 C 353.857375 190.588327 353.88332 190.625953 353.905374 190.666173 C 353.928076 190.706393 353.945589 190.747911 353.958561 190.792024 C 353.972183 190.836136 353.980615 190.880898 353.983858 190.926308 C 353.98775 190.972366 353.987101 191.017776 353.980615 191.063186 C 353.974777 191.108596 353.964399 191.153357 353.948832 191.196821 C 353.933913 191.239636 353.913806 191.281154 353.889806 191.320077 L 286.200006 300.830173 L 239.350061 311.310151 L 131.000198 241.160142 C 130.961929 241.134193 130.926903 241.105001 130.89512 241.071917 C 130.863337 241.039481 130.835446 241.003153 130.811447 240.96423 C 130.786799 240.925307 130.76734 240.883789 130.752421 240.840326 C 130.736854 240.79751 130.726476 240.752749 130.720638 240.707339 C 130.714801 240.661929 130.714152 240.616519 130.718693 240.57046 C 130.722584 240.52505 130.731665 240.480289 130.745286 240.436177 C 130.758908 240.392713 130.777069 240.350546 130.799771 240.310975 C 130.822473 240.271403 130.849067 240.234426 130.880202 240.200045 Z M 130.880202 240.200045 " stroke="#231f20" stroke-width="1" stroke-opacity="1" stroke-miterlimit="10"/></g><path fill="#ffffff" d="M 61.550781 233.542969 L 1088.777344 3.957031 L 1328.679688 1077.066406 L 301.449219 1306.652344 Z M 61.550781 233.542969 " fill-opacity="1" fill-rule="nonzero"/><g clip-path="url(#37e2f517d0)"><path stroke-linecap="butt" transform="matrix(5.877266, -1.313556, 1.313725, 5.876509, -1058.98075, -417.971076)" fill="none" stroke-linejoin="miter" d="M 157.980064 146.180261 L 332.759829 146.179748 L 332.760326 328.789869 L 157.979928 328.79024 Z M 157.980064 146.180261 " stroke="#231f20" stroke-width="1" stroke-opacity="1" stroke-miterlimit="10"/></g><g clip-path="url(#70bd6114ec)"><path fill="#c49a6c" d="M 4.496094 682.34375 L 201.125 1561.484375 L 1549.457031 1260.410156 L 1352.769531 381.265625 C 1352.601562 380.554688 1352.261719 379.9375 1351.746094 379.417969 C 1351.230469 378.898438 1350.621094 378.550781 1349.910156 378.371094 C 1349.203125 378.195312 1348.496094 378.214844 1347.800781 378.429688 C 1347.101562 378.648438 1346.507812 379.03125 1346.027344 379.578125 L 856.109375 950.058594 C 796.609375 946.808594 741.988281 957.886719 693.507812 986.1875 L 9.976562 678.128906 C 9.320312 677.804688 8.625 677.675781 7.894531 677.75 C 7.164062 677.824219 6.507812 678.082031 5.925781 678.53125 C 5.34375 678.976562 4.925781 679.546875 4.667969 680.234375 C 4.410156 680.917969 4.351562 681.621094 4.496094 682.34375 Z M 4.496094 682.34375 " fill-opacity="1" fill-rule="nonzero"/></g><g clip-path="url(#33250be55a)"><path stroke-linecap="butt" transform="matrix(6.022302, 0, 0, 6.021527, -782.49701, -774.867082)" fill="none" stroke-linejoin="miter" d="M 130.679775 242.000227 L 163.329897 387.999848 L 387.219694 338.0002 L 354.559842 191.99993 C 354.531951 191.881864 354.47552 191.779367 354.389901 191.693088 C 354.304281 191.606809 354.203095 191.549073 354.085044 191.519232 C 353.967642 191.49004 353.85024 191.493284 353.734784 191.528963 C 353.618679 191.565291 353.520087 191.628865 353.440305 191.719685 L 272.089695 286.459856 C 262.209752 285.920125 253.139949 287.759879 245.089794 292.459813 L 131.589804 241.300264 C 131.480834 241.246421 131.365377 241.225013 131.244083 241.237339 C 131.122789 241.249664 131.01382 241.292479 130.917174 241.367082 C 130.820528 241.441035 130.751124 241.535747 130.708314 241.649921 C 130.665505 241.763446 130.655775 241.880214 130.679775 242.000227 Z M 130.679775 242.000227 " stroke="#231f20" stroke-width="1" stroke-opacity="1" stroke-miterlimit="10"/></g><g clip-path="url(#f51404cc74)"><path stroke-linecap="butt" transform="matrix(6.022302, 0, 0, 6.021527, 1.365991, 0.223834)" fill="none" stroke-linejoin="miter" d="M 114.910312 163.730083 L 33.169874 259.34018 " stroke="#231f20" stroke-width="1" stroke-opacity="1" stroke-miterlimit="10"/></g><g clip-path="url(#0a9e27a931)"><path stroke-linecap="butt" transform="matrix(6.022302, 0, 0, 6.021527, 1.365991, 0.223834)" fill="none" stroke-linejoin="miter" d="M 141.929672 157.689905 L 257.06032 209.280201 " stroke="#231f20" stroke-width="1" stroke-opacity="1" stroke-miterlimit="10"/></g><g transform="matrix(1, 0, 0, 1, 271, 83)"><g clip-path="url(#0b6cb4b007)"><g fill="#000000" fill-opacity="1"><g transform="translate(238.57973, 212.478385)"><g><path d="M 31.375 -82.234375 C 32.882812 -82.566406 34.101562 -82.597656 35.03125 -82.328125 C 35.957031 -82.054688 36.519531 -81.488281 36.71875 -80.625 C 36.800781 -80.269531 36.789062 -79.78125 36.6875 -79.15625 C 36.59375 -78.613281 36.390625 -78.097656 36.078125 -77.609375 C 35.773438 -77.128906 35.484375 -76.765625 35.203125 -76.515625 C 34.929688 -76.265625 34.734375 -76.046875 34.609375 -75.859375 C 33.617188 -74.972656 32.859375 -74.050781 32.328125 -73.09375 C 31.796875 -72.144531 31.46875 -70.796875 31.34375 -69.046875 L 28.859375 -19.859375 C 28.785156 -18.867188 28.847656 -17.945312 29.046875 -17.09375 C 29.242188 -16.226562 29.53125 -15.535156 29.90625 -15.015625 C 30.289062 -14.503906 30.804688 -13.984375 31.453125 -13.453125 C 32.304688 -12.671875 32.796875 -11.992188 32.921875 -11.421875 C 32.960938 -11.273438 32.972656 -10.90625 32.953125 -10.3125 C 32.898438 -9.238281 32.414062 -8.390625 31.5 -7.765625 C 30.59375 -7.148438 29.140625 -6.617188 27.140625 -6.171875 L 1.9375 -0.4375 C 0.4375 -0.09375 -0.78125 -0.078125 -1.71875 -0.390625 C -2.65625 -0.710938 -3.222656 -1.296875 -3.421875 -2.140625 C -3.515625 -2.566406 -3.515625 -3.054688 -3.421875 -3.609375 C -3.316406 -4.460938 -2.988281 -5.175781 -2.4375 -5.75 C -1.894531 -6.320312 -1.554688 -6.664062 -1.421875 -6.78125 C -0.441406 -7.757812 0.316406 -8.707031 0.859375 -9.625 C 1.398438 -10.539062 1.726562 -11.90625 1.84375 -13.71875 L 4.421875 -62.921875 C 4.484375 -63.910156 4.421875 -64.832031 4.234375 -65.6875 C 4.046875 -66.476562 3.765625 -67.113281 3.390625 -67.59375 C 3.023438 -68.070312 2.546875 -68.617188 1.953125 -69.234375 C 1.109375 -70.023438 0.625 -70.703125 0.5 -71.265625 C 0.445312 -71.484375 0.429688 -71.894531 0.453125 -72.5 C 0.515625 -73.488281 0.984375 -74.285156 1.859375 -74.890625 C 2.734375 -75.503906 4.171875 -76.039062 6.171875 -76.5 Z M 31.375 -82.234375 "/></g></g></g><g fill="#000000" fill-opacity="1"><g transform="translate(281.898571, 202.631671)"><g><path d="M 44.15625 -69.6875 C 46.507812 -70.21875 48.835938 -70.144531 51.140625 -69.46875 C 53.441406 -68.789062 55.382812 -67.691406 56.96875 -66.171875 C 58.550781 -64.660156 59.5625 -62.9375 60 -61 C 60.613281 -58.289062 60.394531 -55.78125 59.34375 -53.46875 C 58.289062 -51.15625 56.34375 -48.660156 53.5 -45.984375 L 33.8125 -27.328125 C 36.53125 -25.367188 38.921875 -24.625 40.984375 -25.09375 C 42.628906 -25.46875 43.953125 -26.410156 44.953125 -27.921875 C 45.960938 -29.441406 47.035156 -31.53125 48.171875 -34.1875 C 48.859375 -35.769531 49.382812 -36.898438 49.75 -37.578125 C 50.125 -38.265625 50.5625 -38.664062 51.0625 -38.78125 C 52.351562 -39.070312 53.867188 -38.925781 55.609375 -38.34375 C 57.359375 -37.757812 58.992188 -36.703125 60.515625 -35.171875 C 62.035156 -33.640625 63.078125 -31.625 63.640625 -29.125 C 64.222656 -26.5625 64.097656 -24.035156 63.265625 -21.546875 C 62.441406 -19.054688 60.976562 -16.898438 58.875 -15.078125 C 56.78125 -13.253906 54.125 -11.972656 50.90625 -11.234375 C 47.757812 -10.523438 44.984375 -10.476562 42.578125 -11.09375 C 40.179688 -11.707031 38.238281 -12.5625 36.75 -13.65625 C 35.269531 -14.75 33.75 -16.09375 32.1875 -17.6875 C 30.882812 -19.125 29.976562 -19.78125 29.46875 -19.65625 C 29.039062 -19.5625 28.648438 -19.210938 28.296875 -18.609375 C 27.953125 -18.003906 27.488281 -16.992188 26.90625 -15.578125 C 25.601562 -12.359375 24.128906 -9.660156 22.484375 -7.484375 C 20.835938 -5.304688 18.367188 -3.84375 15.078125 -3.09375 C 11.941406 -2.382812 8.972656 -2.3125 6.171875 -2.875 C 3.378906 -3.4375 1.035156 -4.5 -0.859375 -6.0625 C -2.765625 -7.625 -3.96875 -9.507812 -4.46875 -11.71875 C -5.363281 -15.65625 -3.578125 -19.863281 0.890625 -24.34375 L 24.625 -47.4375 C 23.0625 -48.65625 21.742188 -49.484375 20.671875 -49.921875 C 19.597656 -50.359375 18.523438 -50.453125 17.453125 -50.203125 C 16.085938 -49.898438 15.03125 -49.15625 14.28125 -47.96875 C 13.539062 -46.789062 12.867188 -45.226562 12.265625 -43.28125 C 11.804688 -41.96875 11.410156 -40.972656 11.078125 -40.296875 C 10.753906 -39.617188 10.300781 -39.210938 9.71875 -39.078125 C 7.507812 -38.578125 5.398438 -38.925781 3.390625 -40.125 C 1.390625 -41.320312 0.0820312 -43.28125 -0.53125 -46 C -1.03125 -48.21875 -0.945312 -50.4375 -0.28125 -52.65625 C 0.375 -54.875 1.582031 -56.820312 3.34375 -58.5 C 5.101562 -60.175781 7.34375 -61.320312 10.0625 -61.9375 C 13.988281 -62.832031 17.253906 -62.582031 19.859375 -61.1875 C 22.472656 -59.789062 24.953125 -57.890625 27.296875 -55.484375 C 28.671875 -54.140625 29.535156 -53.507812 29.890625 -53.59375 C 30.242188 -53.675781 30.597656 -54 30.953125 -54.5625 C 31.316406 -55.132812 31.601562 -55.691406 31.8125 -56.234375 C 32.03125 -56.773438 32.21875 -57.175781 32.375 -57.4375 C 33.894531 -60.695312 35.46875 -63.378906 37.09375 -65.484375 C 38.726562 -67.585938 41.082031 -68.988281 44.15625 -69.6875 Z M 44.15625 -69.6875 "/></g></g></g><g fill="#000000" fill-opacity="1"><g transform="translate(352.881417, 186.496711)"><g><path d="M 15.3125 -63.125 C 19.457031 -64.070312 22.671875 -63.976562 24.953125 -62.84375 C 27.242188 -61.707031 28.695312 -59.785156 29.3125 -57.078125 C 29.6875 -55.429688 29.796875 -53.796875 29.640625 -52.171875 L 27.0625 -17.875 C 27.039062 -16.96875 27.101562 -16.191406 27.25 -15.546875 C 27.457031 -14.628906 27.800781 -13.941406 28.28125 -13.484375 C 28.757812 -13.023438 29.378906 -12.617188 30.140625 -12.265625 C 30.753906 -11.878906 31.203125 -11.546875 31.484375 -11.265625 C 31.773438 -10.992188 31.90625 -10.597656 31.875 -10.078125 C 31.726562 -9.054688 31.164062 -8.207031 30.1875 -7.53125 C 29.21875 -6.863281 27.625 -6.28125 25.40625 -5.78125 L 0.953125 -0.21875 C -0.898438 0.207031 -2.328125 0.210938 -3.328125 -0.203125 C -4.328125 -0.617188 -4.796875 -1.359375 -4.734375 -2.421875 C -4.628906 -3.347656 -4.046875 -4.269531 -2.984375 -5.1875 C -2.046875 -5.988281 -1.304688 -6.867188 -0.765625 -7.828125 C -0.222656 -8.785156 0.0976562 -10.175781 0.203125 -12 L 2.484375 -45.109375 C 2.554688 -45.796875 2.539062 -46.359375 2.4375 -46.796875 C 2.257812 -47.578125 1.9375 -48.15625 1.46875 -48.53125 C 1.007812 -48.914062 0.367188 -49.285156 -0.453125 -49.640625 C -1.296875 -50.035156 -1.910156 -50.414062 -2.296875 -50.78125 C -2.679688 -51.15625 -2.847656 -51.71875 -2.796875 -52.46875 C -2.742188 -54.21875 -0.820312 -56.179688 2.96875 -58.359375 C 6.769531 -60.535156 10.882812 -62.125 15.3125 -63.125 Z M 17.109375 -88.46875 C 19.890625 -89.101562 22.414062 -88.722656 24.6875 -87.328125 C 26.957031 -85.929688 28.394531 -83.90625 29 -81.25 C 29.425781 -79.394531 29.359375 -77.460938 28.796875 -75.453125 C 28.242188 -73.441406 27.21875 -71.679688 25.71875 -70.171875 C 24.21875 -68.671875 22.394531 -67.675781 20.25 -67.1875 C 17.53125 -66.570312 15.050781 -66.96875 12.8125 -68.375 C 10.582031 -69.789062 9.125 -71.84375 8.4375 -74.53125 C 8.03125 -76.320312 8.09375 -78.195312 8.625 -80.15625 C 9.15625 -82.125 10.144531 -83.875 11.59375 -85.40625 C 13.050781 -86.9375 14.890625 -87.957031 17.109375 -88.46875 Z M 17.109375 -88.46875 "/></g></g></g><g fill="#000000" fill-opacity="1"><g transform="translate(392.125691, 177.576178)"><g><path d="M 63.03125 -29.890625 C 62.9375 -29.566406 62.953125 -29.117188 63.078125 -28.546875 C 63.191406 -28.046875 63.410156 -27.679688 63.734375 -27.453125 C 64.054688 -27.222656 64.429688 -27.160156 64.859375 -27.265625 C 65.710938 -27.453125 66.359375 -27.988281 66.796875 -28.875 C 67.234375 -29.769531 67.554688 -30.242188 67.765625 -30.296875 C 68.117188 -30.367188 68.457031 -30.195312 68.78125 -29.78125 C 69.101562 -29.375 69.335938 -28.847656 69.484375 -28.203125 C 70.035156 -26.148438 69.816406 -23.972656 68.828125 -21.671875 C 67.835938 -19.378906 66.109375 -17.296875 63.640625 -15.421875 C 61.171875 -13.554688 58.007812 -12.1875 54.15625 -11.3125 C 49.4375 -10.238281 45.4375 -10.472656 42.15625 -12.015625 C 38.875 -13.554688 36.78125 -16.144531 35.875 -19.78125 C 35.28125 -22.414062 35.25 -25.519531 35.78125 -29.09375 L 38.171875 -45.890625 C 38.328125 -46.898438 38.34375 -47.691406 38.21875 -48.265625 C 38 -49.191406 37.523438 -49.851562 36.796875 -50.25 C 36.066406 -50.65625 35.269531 -50.757812 34.40625 -50.5625 C 32.84375 -50.207031 31.507812 -49.132812 30.40625 -47.34375 C 29.3125 -45.550781 28.679688 -43.507812 28.515625 -41.21875 L 26.84375 -17.828125 C 26.738281 -16.984375 26.769531 -16.195312 26.9375 -15.46875 C 27.125 -14.625 27.457031 -13.972656 27.9375 -13.515625 C 28.425781 -13.054688 29.050781 -12.617188 29.8125 -12.203125 C 30.40625 -11.890625 30.847656 -11.570312 31.140625 -11.25 C 31.441406 -10.9375 31.578125 -10.519531 31.546875 -10 C 31.472656 -9 30.945312 -8.160156 29.96875 -7.484375 C 29 -6.816406 27.375 -6.222656 25.09375 -5.703125 L 0.640625 -0.140625 C -1.210938 0.273438 -2.617188 0.273438 -3.578125 -0.140625 C -4.546875 -0.566406 -5.035156 -1.300781 -5.046875 -2.34375 C -4.953125 -3.269531 -4.375 -4.191406 -3.3125 -5.109375 C -2.363281 -5.921875 -1.617188 -6.800781 -1.078125 -7.75 C -0.546875 -8.707031 -0.222656 -10.097656 -0.109375 -11.921875 L 2.375 -45.09375 C 2.4375 -45.476562 2.394531 -45.992188 2.25 -46.640625 C 2.070312 -47.421875 1.773438 -47.988281 1.359375 -48.34375 C 0.941406 -48.695312 0.300781 -49.117188 -0.5625 -49.609375 C -1.40625 -50.015625 -2.015625 -50.398438 -2.390625 -50.765625 C -2.773438 -51.128906 -2.945312 -51.691406 -2.90625 -52.453125 C -2.851562 -54.191406 -0.929688 -56.148438 2.859375 -58.328125 C 6.660156 -60.503906 10.773438 -62.097656 15.203125 -63.109375 C 18.773438 -63.921875 21.820312 -63.578125 24.34375 -62.078125 C 26.863281 -60.585938 28.414062 -58.070312 29 -54.53125 C 30.976562 -59.40625 33.425781 -63.019531 36.34375 -65.375 C 39.257812 -67.726562 42.648438 -69.34375 46.515625 -70.21875 C 50.867188 -71.207031 54.6875 -70.679688 57.96875 -68.640625 C 61.25 -66.609375 63.367188 -63.488281 64.328125 -59.28125 C 64.835938 -57.0625 64.976562 -54.800781 64.75 -52.5 Z M 63.03125 -29.890625 "/></g></g></g><g fill="#000000" fill-opacity="1"><g transform="translate(283.05948, 357.893717)"><g><path d="M 56.421875 -29.0625 C 56.410156 -28.457031 56.429688 -28.050781 56.484375 -27.84375 C 56.585938 -27.34375 56.816406 -26.976562 57.171875 -26.75 C 57.523438 -26.519531 57.921875 -26.457031 58.359375 -26.5625 C 59.210938 -26.75 59.859375 -27.289062 60.296875 -28.1875 C 60.734375 -29.082031 61.054688 -29.554688 61.265625 -29.609375 C 61.628906 -29.679688 61.972656 -29.492188 62.296875 -29.046875 C 62.617188 -28.597656 62.851562 -28.050781 63 -27.40625 C 63.507812 -25.476562 63.226562 -23.335938 62.15625 -20.984375 C 61.082031 -18.640625 59.398438 -16.535156 57.109375 -14.671875 C 54.828125 -12.804688 52.1875 -11.53125 49.1875 -10.84375 C 45.625 -10.039062 42.359375 -10.015625 39.390625 -10.765625 C 36.429688 -11.515625 34.203125 -12.882812 32.703125 -14.875 C 31.347656 -11.9375 29.554688 -9.578125 27.328125 -7.796875 C 25.097656 -6.015625 22.59375 -4.804688 19.8125 -4.171875 C 16.519531 -3.421875 13.273438 -3.546875 10.078125 -4.546875 C 6.878906 -5.546875 4.09375 -7.375 1.71875 -10.03125 C -0.65625 -12.695312 -2.28125 -15.957031 -3.15625 -19.8125 C -4.632812 -26.3125 -4.789062 -32.71875 -3.625 -39.03125 C -2.46875 -45.34375 -0.078125 -50.773438 3.546875 -55.328125 C 7.179688 -59.878906 11.820312 -62.796875 17.46875 -64.078125 C 20.539062 -64.773438 23.25 -65.007812 25.59375 -64.78125 C 27.9375 -64.5625 30.164062 -63.945312 32.28125 -62.9375 L 33.1875 -75.765625 C 33.25 -76.453125 33.234375 -77.015625 33.140625 -77.453125 C 32.960938 -78.234375 32.617188 -78.832031 32.109375 -79.25 C 31.609375 -79.664062 30.976562 -80.050781 30.21875 -80.40625 C 29.363281 -80.800781 28.726562 -81.175781 28.3125 -81.53125 C 27.90625 -81.894531 27.722656 -82.460938 27.765625 -83.234375 C 27.816406 -84.972656 29.738281 -86.910156 33.53125 -89.046875 C 37.332031 -91.191406 41.457031 -92.769531 45.90625 -93.78125 C 50.039062 -94.71875 53.269531 -94.617188 55.59375 -93.484375 C 57.925781 -92.359375 59.398438 -90.441406 60.015625 -87.734375 C 60.367188 -86.160156 60.46875 -84.5625 60.3125 -82.9375 Z M 31.671875 -55.140625 C 30.296875 -55.867188 28.929688 -56.082031 27.578125 -55.78125 C 25.503906 -55.3125 23.8125 -53.304688 22.5 -49.765625 C 21.195312 -46.234375 20.4375 -42.148438 20.21875 -37.515625 C 20 -32.890625 20.320312 -28.832031 21.1875 -25.34375 C 22.082031 -21.414062 23.816406 -19.742188 26.390625 -20.328125 C 27.328125 -20.535156 28.03125 -21.085938 28.5 -21.984375 C 28.96875 -22.878906 29.296875 -24.253906 29.484375 -26.109375 Z M 31.671875 -55.140625 "/></g></g></g><g fill="#000000" fill-opacity="1"><g transform="translate(344.713376, 343.879301)"><g><path d="M 25.390625 -65.421875 C 33.609375 -67.285156 40.523438 -67.257812 46.140625 -65.34375 C 51.765625 -63.4375 55.285156 -59.375 56.703125 -53.15625 C 57.242188 -50.789062 57.425781 -48.015625 57.25 -44.828125 L 56.203125 -29.015625 C 56.210938 -28.703125 56.265625 -28.335938 56.359375 -27.921875 C 56.617188 -26.765625 57.210938 -26.296875 58.140625 -26.515625 C 58.992188 -26.703125 59.640625 -27.242188 60.078125 -28.140625 C 60.515625 -29.035156 60.84375 -29.507812 61.0625 -29.5625 C 61.414062 -29.632812 61.773438 -29.445312 62.140625 -29 C 62.503906 -28.5625 62.757812 -28.019531 62.90625 -27.375 C 63.40625 -25.457031 63.117188 -23.320312 62.046875 -20.96875 C 60.972656 -18.625 59.296875 -16.515625 57.015625 -14.640625 C 54.734375 -12.773438 52.050781 -11.492188 48.96875 -10.796875 C 45.25 -9.953125 41.910156 -9.90625 38.953125 -10.65625 C 36.003906 -11.414062 33.734375 -13.003906 32.140625 -15.421875 C 30.578125 -12.359375 28.488281 -9.796875 25.875 -7.734375 C 23.257812 -5.679688 20.269531 -4.273438 16.90625 -3.515625 C 13.125 -2.648438 9.773438 -2.65625 6.859375 -3.53125 C 3.953125 -4.40625 1.613281 -5.863281 -0.15625 -7.90625 C -1.9375 -9.945312 -3.117188 -12.253906 -3.703125 -14.828125 C -3.960938 -15.972656 -4.109375 -17.101562 -4.140625 -18.21875 C -4.117188 -23.414062 -2.484375 -27.703125 0.765625 -31.078125 C 4.023438 -34.453125 8.300781 -36.738281 13.59375 -37.9375 C 19.53125 -39.289062 25.566406 -39.6875 31.703125 -39.125 L 32.796875 -46.8125 C 33.023438 -50.03125 32.953125 -52.457031 32.578125 -54.09375 C 32.117188 -55.789062 31.253906 -56.945312 29.984375 -57.5625 C 28.722656 -58.1875 26.984375 -58.242188 24.765625 -57.734375 C 25.453125 -56.691406 25.9375 -55.5625 26.21875 -54.34375 C 26.8125 -51.695312 26.328125 -49.179688 24.765625 -46.796875 C 23.210938 -44.410156 20.578125 -42.796875 16.859375 -41.953125 C 13.359375 -41.160156 10.445312 -41.304688 8.125 -42.390625 C 5.8125 -43.472656 4.394531 -45.164062 3.875 -47.46875 C 3.0625 -51.039062 4.390625 -54.457031 7.859375 -57.71875 C 11.328125 -60.976562 17.171875 -63.546875 25.390625 -65.421875 Z M 26.75 -31.5625 C 24.75 -31.113281 23.300781 -29.976562 22.40625 -28.15625 C 21.507812 -26.332031 21.265625 -24.523438 21.671875 -22.734375 C 21.929688 -21.585938 22.410156 -20.722656 23.109375 -20.140625 C 23.816406 -19.554688 24.664062 -19.375 25.65625 -19.59375 C 26.59375 -19.8125 27.53125 -20.414062 28.46875 -21.40625 C 29.40625 -22.40625 29.945312 -23.710938 30.09375 -25.328125 L 30.921875 -32.171875 C 29.648438 -32.109375 28.257812 -31.90625 26.75 -31.5625 Z M 26.75 -31.5625 "/></g></g></g><g fill="#000000" fill-opacity="1"><g transform="translate(414.838419, 327.939326)"><g><path d="M 63.03125 -29.890625 C 62.9375 -29.566406 62.953125 -29.117188 63.078125 -28.546875 C 63.191406 -28.046875 63.410156 -27.679688 63.734375 -27.453125 C 64.054688 -27.222656 64.429688 -27.160156 64.859375 -27.265625 C 65.710938 -27.453125 66.359375 -27.988281 66.796875 -28.875 C 67.234375 -29.769531 67.554688 -30.242188 67.765625 -30.296875 C 68.117188 -30.367188 68.457031 -30.195312 68.78125 -29.78125 C 69.101562 -29.375 69.335938 -28.847656 69.484375 -28.203125 C 70.035156 -26.148438 69.816406 -23.972656 68.828125 -21.671875 C 67.835938 -19.378906 66.109375 -17.296875 63.640625 -15.421875 C 61.171875 -13.554688 58.007812 -12.1875 54.15625 -11.3125 C 49.4375 -10.238281 45.4375 -10.472656 42.15625 -12.015625 C 38.875 -13.554688 36.78125 -16.144531 35.875 -19.78125 C 35.28125 -22.414062 35.25 -25.519531 35.78125 -29.09375 L 38.171875 -45.890625 C 38.328125 -46.898438 38.34375 -47.691406 38.21875 -48.265625 C 38 -49.191406 37.523438 -49.851562 36.796875 -50.25 C 36.066406 -50.65625 35.269531 -50.757812 34.40625 -50.5625 C 32.84375 -50.207031 31.507812 -49.132812 30.40625 -47.34375 C 29.3125 -45.550781 28.679688 -43.507812 28.515625 -41.21875 L 26.84375 -17.828125 C 26.738281 -16.984375 26.769531 -16.195312 26.9375 -15.46875 C 27.125 -14.625 27.457031 -13.972656 27.9375 -13.515625 C 28.425781 -13.054688 29.050781 -12.617188 29.8125 -12.203125 C 30.40625 -11.890625 30.847656 -11.570312 31.140625 -11.25 C 31.441406 -10.9375 31.578125 -10.519531 31.546875 -10 C 31.472656 -9 30.945312 -8.160156 29.96875 -7.484375 C 29 -6.816406 27.375 -6.222656 25.09375 -5.703125 L 0.640625 -0.140625 C -1.210938 0.273438 -2.617188 0.273438 -3.578125 -0.140625 C -4.546875 -0.566406 -5.035156 -1.300781 -5.046875 -2.34375 C -4.953125 -3.269531 -4.375 -4.191406 -3.3125 -5.109375 C -2.363281 -5.921875 -1.617188 -6.800781 -1.078125 -7.75 C -0.546875 -8.707031 -0.222656 -10.097656 -0.109375 -11.921875 L 2.375 -45.09375 C 2.4375 -45.476562 2.394531 -45.992188 2.25 -46.640625 C 2.070312 -47.421875 1.773438 -47.988281 1.359375 -48.34375 C 0.941406 -48.695312 0.300781 -49.117188 -0.5625 -49.609375 C -1.40625 -50.015625 -2.015625 -50.398438 -2.390625 -50.765625 C -2.773438 -51.128906 -2.945312 -51.691406 -2.90625 -52.453125 C -2.851562 -54.191406 -0.929688 -56.148438 2.859375 -58.328125 C 6.660156 -60.503906 10.773438 -62.097656 15.203125 -63.109375 C 18.773438 -63.921875 21.820312 -63.578125 24.34375 -62.078125 C 26.863281 -60.585938 28.414062 -58.070312 29 -54.53125 C 30.976562 -59.40625 33.425781 -63.019531 36.34375 -65.375 C 39.257812 -67.726562 42.648438 -69.34375 46.515625 -70.21875 C 50.867188 -71.207031 54.6875 -70.679688 57.96875 -68.640625 C 61.25 -66.609375 63.367188 -63.488281 64.328125 -59.28125 C 64.835938 -57.0625 64.976562 -54.800781 64.75 -52.5 Z M 63.03125 -29.890625 "/></g></g></g><g fill="#000000" fill-opacity="1"><g transform="translate(96.266404, 555.879185)"><g><path d="M 23.71875 -81.171875 C 27.726562 -82.085938 31.539062 -82.445312 35.15625 -82.25 C 38.769531 -82.0625 42.5625 -81.320312 46.53125 -80.03125 L 48.53125 -82.640625 C 49.945312 -84.390625 51.148438 -85.640625 52.140625 -86.390625 C 53.140625 -87.140625 54.351562 -87.675781 55.78125 -88 C 57.488281 -88.394531 58.929688 -88.332031 60.109375 -87.8125 C 61.285156 -87.300781 62.035156 -86.328125 62.359375 -84.890625 C 62.484375 -84.328125 62.507812 -83.691406 62.4375 -82.984375 L 61.3125 -67.15625 C 61.195312 -65.332031 60.84375 -63.976562 60.25 -63.09375 C 59.664062 -62.207031 58.625 -61.59375 57.125 -61.25 C 55.550781 -60.882812 54.0625 -61.050781 52.65625 -61.75 C 51.257812 -62.445312 48.972656 -64.015625 45.796875 -66.453125 C 42.640625 -68.742188 39.910156 -70.25 37.609375 -70.96875 C 35.304688 -71.6875 33.082031 -71.800781 30.9375 -71.3125 C 29.363281 -70.957031 28.15625 -70.140625 27.3125 -68.859375 C 26.476562 -67.578125 26.234375 -66.1875 26.578125 -64.6875 C 26.960938 -62.96875 28.175781 -61.566406 30.21875 -60.484375 C 32.269531 -59.410156 35.378906 -58.179688 39.546875 -56.796875 C 43.753906 -55.429688 47.273438 -54.128906 50.109375 -52.890625 C 52.953125 -51.660156 55.53125 -49.914062 57.84375 -47.65625 C 60.15625 -45.394531 61.703125 -42.546875 62.484375 -39.109375 C 62.992188 -36.898438 63.144531 -34.609375 62.9375 -32.234375 C 62.519531 -26.117188 60.179688 -21.019531 55.921875 -16.9375 C 51.660156 -12.851562 46.238281 -10.066406 39.65625 -8.578125 C 34.71875 -7.453125 30.441406 -7.078125 26.828125 -7.453125 C 23.210938 -7.828125 19.34375 -8.976562 15.21875 -10.90625 L 12.109375 -6.8125 C 10.660156 -4.90625 9.421875 -3.550781 8.390625 -2.75 C 7.367188 -1.957031 6.144531 -1.398438 4.71875 -1.078125 C 3.070312 -0.703125 1.675781 -0.796875 0.53125 -1.359375 C -0.601562 -1.929688 -1.328125 -2.898438 -1.640625 -4.265625 C -1.804688 -4.972656 -1.835938 -5.75 -1.734375 -6.59375 L -0.09375 -23.765625 C 0.0390625 -25.753906 0.519531 -27.253906 1.34375 -28.265625 C 2.164062 -29.285156 3.367188 -29.976562 4.953125 -30.34375 C 6.597656 -30.71875 8.207031 -30.476562 9.78125 -29.625 C 11.363281 -28.78125 13.566406 -27.101562 16.390625 -24.59375 C 19.429688 -21.820312 22.082031 -20.015625 24.34375 -19.171875 C 26.601562 -18.335938 29.085938 -18.226562 31.796875 -18.84375 C 33.722656 -19.28125 35.132812 -19.921875 36.03125 -20.765625 C 36.9375 -21.609375 37.453125 -22.757812 37.578125 -24.21875 C 37.640625 -24.601562 37.59375 -25.15625 37.4375 -25.875 C 37.039062 -27.59375 35.859375 -28.976562 33.890625 -30.03125 C 31.921875 -31.082031 28.988281 -32.21875 25.09375 -33.4375 C 20.945312 -34.832031 17.53125 -36.144531 14.84375 -37.375 C 12.164062 -38.601562 9.6875 -40.347656 7.40625 -42.609375 C 5.125 -44.878906 3.578125 -47.800781 2.765625 -51.375 C 2.203125 -53.875 2.03125 -56.429688 2.25 -59.046875 C 2.632812 -64.316406 4.804688 -68.976562 8.765625 -73.03125 C 12.734375 -77.09375 17.71875 -79.804688 23.71875 -81.171875 Z M 23.71875 -81.171875 "/></g></g></g><g fill="#000000" fill-opacity="1"><g transform="translate(170.144316, 539.086154)"><g><path d="M 60.34375 -29.28125 C 60.3125 -28.664062 60.328125 -28.21875 60.390625 -27.9375 C 60.503906 -27.4375 60.722656 -27.070312 61.046875 -26.84375 C 61.367188 -26.613281 61.742188 -26.550781 62.171875 -26.65625 C 63.023438 -26.84375 63.671875 -27.378906 64.109375 -28.265625 C 64.546875 -29.160156 64.867188 -29.632812 65.078125 -29.6875 C 65.441406 -29.757812 65.800781 -29.59375 66.15625 -29.1875 C 66.507812 -28.78125 66.757812 -28.253906 66.90625 -27.609375 C 67.4375 -25.628906 67.175781 -23.484375 66.125 -21.171875 C 65.070312 -18.859375 63.332031 -16.753906 60.90625 -14.859375 C 58.476562 -12.960938 55.582031 -11.628906 52.21875 -10.859375 C 48 -9.910156 44.445312 -10.003906 41.5625 -11.140625 C 38.675781 -12.273438 36.550781 -14.160156 35.1875 -16.796875 C 33.28125 -13.347656 30.9375 -10.539062 28.15625 -8.375 C 25.375 -6.207031 22.378906 -4.757812 19.171875 -4.03125 C 14.160156 -2.882812 9.675781 -3.15625 5.71875 -4.84375 C 1.757812 -6.539062 -0.722656 -9.609375 -1.734375 -14.046875 C -2.179688 -16.046875 -2.289062 -18.195312 -2.0625 -20.5 L -0.296875 -44.484375 C -0.234375 -45.160156 -0.253906 -45.71875 -0.359375 -46.15625 C -0.535156 -46.9375 -0.851562 -47.519531 -1.3125 -47.90625 C -1.769531 -48.289062 -2.410156 -48.65625 -3.234375 -49 C -4.085938 -49.40625 -4.703125 -49.789062 -5.078125 -50.15625 C -5.460938 -50.519531 -5.632812 -51.082031 -5.59375 -51.84375 C -5.539062 -53.582031 -3.617188 -55.539062 0.171875 -57.71875 C 3.972656 -59.894531 8.085938 -61.488281 12.515625 -62.5 C 16.660156 -63.4375 19.878906 -63.335938 22.171875 -62.203125 C 24.460938 -61.066406 25.914062 -59.144531 26.53125 -56.4375 C 26.90625 -54.789062 27.007812 -53.160156 26.84375 -51.546875 L 25.171875 -27.703125 C 25.054688 -26.859375 25.078125 -26.082031 25.234375 -25.375 C 25.460938 -24.363281 25.921875 -23.671875 26.609375 -23.296875 C 27.296875 -22.929688 28.109375 -22.851562 29.046875 -23.0625 C 30.390625 -23.375 31.398438 -24.019531 32.078125 -25 C 32.765625 -25.976562 33.328125 -27.492188 33.765625 -29.546875 L 35.40625 -52.59375 C 35.476562 -53.28125 35.460938 -53.84375 35.359375 -54.28125 C 35.179688 -55.0625 34.863281 -55.640625 34.40625 -56.015625 C 33.945312 -56.398438 33.332031 -56.773438 32.5625 -57.140625 C 31.726562 -57.546875 31.117188 -57.929688 30.734375 -58.296875 C 30.347656 -58.660156 30.179688 -59.222656 30.234375 -59.984375 C 30.210938 -61.710938 32.097656 -63.660156 35.890625 -65.828125 C 39.679688 -68.003906 43.796875 -69.597656 48.234375 -70.609375 C 52.378906 -71.554688 55.613281 -71.460938 57.9375 -70.328125 C 60.257812 -69.203125 61.71875 -67.320312 62.3125 -64.6875 C 62.625 -63.320312 62.707031 -61.644531 62.5625 -59.65625 Z M 60.34375 -29.28125 "/></g></g></g><g fill="#000000" fill-opacity="1"><g transform="translate(243.700533, 522.366246)"><g><path d="M 39.765625 -68.6875 C 43.765625 -69.59375 47.234375 -69.101562 50.171875 -67.21875 C 53.117188 -65.34375 55 -62.617188 55.8125 -59.046875 C 56.113281 -57.679688 56.257812 -56.394531 56.25 -55.1875 C 56.195312 -52.09375 55.347656 -49.53125 53.703125 -47.5 C 52.066406 -45.476562 49.851562 -44.148438 47.0625 -43.515625 C 44.34375 -42.898438 42.140625 -43.078125 40.453125 -44.046875 C 38.765625 -45.015625 37.144531 -46.445312 35.59375 -48.34375 C 34.738281 -49.425781 34 -50.195312 33.375 -50.65625 C 32.75 -51.125 32.113281 -51.285156 31.46875 -51.140625 C 30.75 -50.972656 30.1875 -50.539062 29.78125 -49.84375 C 29.375 -49.144531 29.117188 -48.03125 29.015625 -46.5 L 26.84375 -17.828125 C 26.78125 -17.441406 26.828125 -16.882812 26.984375 -16.15625 C 27.191406 -15.238281 27.632812 -14.535156 28.3125 -14.046875 C 29 -13.566406 29.863281 -13.144531 30.90625 -12.78125 C 31.90625 -12.40625 32.585938 -12.066406 32.953125 -11.765625 C 33.328125 -11.472656 33.539062 -11.039062 33.59375 -10.46875 C 33.65625 -9.488281 33.289062 -8.679688 32.5 -8.046875 C 31.707031 -7.421875 30.238281 -6.867188 28.09375 -6.390625 L 0.640625 -0.140625 C -1.210938 0.273438 -2.617188 0.273438 -3.578125 -0.140625 C -4.546875 -0.566406 -5.035156 -1.300781 -5.046875 -2.34375 C -4.953125 -3.269531 -4.375 -4.191406 -3.3125 -5.109375 C -2.363281 -5.921875 -1.617188 -6.800781 -1.078125 -7.75 C -0.546875 -8.707031 -0.222656 -10.097656 -0.109375 -11.921875 L 2.375 -45.09375 C 2.4375 -45.476562 2.394531 -45.992188 2.25 -46.640625 C 2.070312 -47.421875 1.773438 -47.988281 1.359375 -48.34375 C 0.941406 -48.695312 0.300781 -49.117188 -0.5625 -49.609375 C -1.40625 -50.015625 -2.015625 -50.398438 -2.390625 -50.765625 C -2.773438 -51.128906 -2.945312 -51.691406 -2.90625 -52.453125 C -2.851562 -54.191406 -0.929688 -56.148438 2.859375 -58.328125 C 6.660156 -60.503906 10.773438 -62.097656 15.203125 -63.109375 C 18.140625 -63.773438 20.71875 -63.664062 22.9375 -62.78125 C 25.164062 -61.90625 26.847656 -60.3125 27.984375 -58 C 30.265625 -63.851562 34.191406 -67.414062 39.765625 -68.6875 Z M 39.765625 -68.6875 "/></g></g></g><g fill="#000000" fill-opacity="1"><g transform="translate(303.639099, 508.741738)"><g><path d="M 25.390625 -65.421875 C 33.609375 -67.285156 40.523438 -67.257812 46.140625 -65.34375 C 51.765625 -63.4375 55.285156 -59.375 56.703125 -53.15625 C 57.242188 -50.789062 57.425781 -48.015625 57.25 -44.828125 L 56.203125 -29.015625 C 56.210938 -28.703125 56.265625 -28.335938 56.359375 -27.921875 C 56.617188 -26.765625 57.210938 -26.296875 58.140625 -26.515625 C 58.992188 -26.703125 59.640625 -27.242188 60.078125 -28.140625 C 60.515625 -29.035156 60.84375 -29.507812 61.0625 -29.5625 C 61.414062 -29.632812 61.773438 -29.445312 62.140625 -29 C 62.503906 -28.5625 62.757812 -28.019531 62.90625 -27.375 C 63.40625 -25.457031 63.117188 -23.320312 62.046875 -20.96875 C 60.972656 -18.625 59.296875 -16.515625 57.015625 -14.640625 C 54.734375 -12.773438 52.050781 -11.492188 48.96875 -10.796875 C 45.25 -9.953125 41.910156 -9.90625 38.953125 -10.65625 C 36.003906 -11.414062 33.734375 -13.003906 32.140625 -15.421875 C 30.578125 -12.359375 28.488281 -9.796875 25.875 -7.734375 C 23.257812 -5.679688 20.269531 -4.273438 16.90625 -3.515625 C 13.125 -2.648438 9.773438 -2.65625 6.859375 -3.53125 C 3.953125 -4.40625 1.613281 -5.863281 -0.15625 -7.90625 C -1.9375 -9.945312 -3.117188 -12.253906 -3.703125 -14.828125 C -3.960938 -15.972656 -4.109375 -17.101562 -4.140625 -18.21875 C -4.117188 -23.414062 -2.484375 -27.703125 0.765625 -31.078125 C 4.023438 -34.453125 8.300781 -36.738281 13.59375 -37.9375 C 19.53125 -39.289062 25.566406 -39.6875 31.703125 -39.125 L 32.796875 -46.8125 C 33.023438 -50.03125 32.953125 -52.457031 32.578125 -54.09375 C 32.117188 -55.789062 31.253906 -56.945312 29.984375 -57.5625 C 28.722656 -58.1875 26.984375 -58.242188 24.765625 -57.734375 C 25.453125 -56.691406 25.9375 -55.5625 26.21875 -54.34375 C 26.8125 -51.695312 26.328125 -49.179688 24.765625 -46.796875 C 23.210938 -44.410156 20.578125 -42.796875 16.859375 -41.953125 C 13.359375 -41.160156 10.445312 -41.304688 8.125 -42.390625 C 5.8125 -43.472656 4.394531 -45.164062 3.875 -47.46875 C 3.0625 -51.039062 4.390625 -54.457031 7.859375 -57.71875 C 11.328125 -60.976562 17.171875 -63.546875 25.390625 -65.421875 Z M 26.75 -31.5625 C 24.75 -31.113281 23.300781 -29.976562 22.40625 -28.15625 C 21.507812 -26.332031 21.265625 -24.523438 21.671875 -22.734375 C 21.929688 -21.585938 22.410156 -20.722656 23.109375 -20.140625 C 23.816406 -19.554688 24.664062 -19.375 25.65625 -19.59375 C 26.59375 -19.8125 27.53125 -20.414062 28.46875 -21.40625 C 29.40625 -22.40625 29.945312 -23.710938 30.09375 -25.328125 L 30.921875 -32.171875 C 29.648438 -32.109375 28.257812 -31.90625 26.75 -31.5625 Z M 26.75 -31.5625 "/></g></g></g><g fill="#000000" fill-opacity="1"><g transform="translate(373.764143, 492.801763)"><g><path d="M 35.359375 -66.234375 C 36.710938 -66.546875 37.832031 -66.5 38.71875 -66.09375 C 39.601562 -65.6875 40.160156 -64.984375 40.390625 -63.984375 C 40.453125 -63.703125 40.488281 -63.179688 40.5 -62.421875 C 40.28125 -59.066406 38.492188 -57.007812 35.140625 -56.25 L 28.921875 -54.84375 L 26.90625 -26.515625 C 26.789062 -25.367188 26.863281 -24.226562 27.125 -23.09375 C 27.414062 -21.800781 27.972656 -20.984375 28.796875 -20.640625 C 29.628906 -20.296875 30.6875 -20.269531 31.96875 -20.5625 C 33.113281 -20.820312 34.515625 -21.296875 36.171875 -21.984375 C 36.972656 -22.390625 37.695312 -22.664062 38.34375 -22.8125 C 38.84375 -22.925781 39.253906 -22.847656 39.578125 -22.578125 C 39.898438 -22.316406 40.117188 -21.9375 40.234375 -21.4375 C 40.628906 -20.007812 39.96875 -18.03125 38.25 -15.5 C 36.53125 -12.96875 33.976562 -10.550781 30.59375 -8.25 C 27.21875 -5.945312 23.28125 -4.285156 18.78125 -3.265625 C 13.914062 -2.160156 9.765625 -2.378906 6.328125 -3.921875 C 2.890625 -5.472656 0.734375 -8.175781 -0.140625 -12.03125 C -0.546875 -13.820312 -0.648438 -15.601562 -0.453125 -17.375 L 1.578125 -40.15625 C 1.660156 -41.457031 1.617188 -42.460938 1.453125 -43.171875 C 1.128906 -44.609375 0.515625 -45.75 -0.390625 -46.59375 C -1.296875 -47.4375 -2.476562 -48.257812 -3.9375 -49.0625 C -5.238281 -49.8125 -6.179688 -50.476562 -6.765625 -51.0625 C -7.347656 -51.65625 -7.632812 -52.441406 -7.625 -53.421875 C -7.550781 -54.410156 -7.101562 -55.257812 -6.28125 -55.96875 C -5.46875 -56.6875 -4.0625 -57.273438 -2.0625 -57.734375 L 3.9375 -59.09375 L 9.15625 -67.375 C 10.96875 -70.269531 12.753906 -72.40625 14.515625 -73.78125 C 16.285156 -75.15625 18.738281 -76.195312 21.875 -76.90625 C 26.382812 -77.9375 29.03125 -76.738281 29.8125 -73.3125 C 30.050781 -72.238281 30.132812 -71.207031 30.0625 -70.21875 L 29.671875 -64.953125 Z M 35.359375 -66.234375 "/></g></g></g><g fill="#000000" fill-opacity="1"><g transform="translate(419.870805, 482.321355)"><g/></g></g><g fill="#000000" fill-opacity="1"><g transform="translate(441.315774, 477.446745)"><g><path d="M 23.71875 -81.171875 C 27.726562 -82.085938 31.539062 -82.445312 35.15625 -82.25 C 38.769531 -82.0625 42.5625 -81.320312 46.53125 -80.03125 L 48.53125 -82.640625 C 49.945312 -84.390625 51.148438 -85.640625 52.140625 -86.390625 C 53.140625 -87.140625 54.351562 -87.675781 55.78125 -88 C 57.488281 -88.394531 58.929688 -88.332031 60.109375 -87.8125 C 61.285156 -87.300781 62.035156 -86.328125 62.359375 -84.890625 C 62.484375 -84.328125 62.507812 -83.691406 62.4375 -82.984375 L 61.3125 -67.15625 C 61.195312 -65.332031 60.84375 -63.976562 60.25 -63.09375 C 59.664062 -62.207031 58.625 -61.59375 57.125 -61.25 C 55.550781 -60.882812 54.0625 -61.050781 52.65625 -61.75 C 51.257812 -62.445312 48.972656 -64.015625 45.796875 -66.453125 C 42.640625 -68.742188 39.910156 -70.25 37.609375 -70.96875 C 35.304688 -71.6875 33.082031 -71.800781 30.9375 -71.3125 C 29.363281 -70.957031 28.15625 -70.140625 27.3125 -68.859375 C 26.476562 -67.578125 26.234375 -66.1875 26.578125 -64.6875 C 26.960938 -62.96875 28.175781 -61.566406 30.21875 -60.484375 C 32.269531 -59.410156 35.378906 -58.179688 39.546875 -56.796875 C 43.753906 -55.429688 47.273438 -54.128906 50.109375 -52.890625 C 52.953125 -51.660156 55.53125 -49.914062 57.84375 -47.65625 C 60.15625 -45.394531 61.703125 -42.546875 62.484375 -39.109375 C 62.992188 -36.898438 63.144531 -34.609375 62.9375 -32.234375 C 62.519531 -26.117188 60.179688 -21.019531 55.921875 -16.9375 C 51.660156 -12.851562 46.238281 -10.066406 39.65625 -8.578125 C 34.71875 -7.453125 30.441406 -7.078125 26.828125 -7.453125 C 23.210938 -7.828125 19.34375 -8.976562 15.21875 -10.90625 L 12.109375 -6.8125 C 10.660156 -4.90625 9.421875 -3.550781 8.390625 -2.75 C 7.367188 -1.957031 6.144531 -1.398438 4.71875 -1.078125 C 3.070312 -0.703125 1.675781 -0.796875 0.53125 -1.359375 C -0.601562 -1.929688 -1.328125 -2.898438 -1.640625 -4.265625 C -1.804688 -4.972656 -1.835938 -5.75 -1.734375 -6.59375 L -0.09375 -23.765625 C 0.0390625 -25.753906 0.519531 -27.253906 1.34375 -28.265625 C 2.164062 -29.285156 3.367188 -29.976562 4.953125 -30.34375 C 6.597656 -30.71875 8.207031 -30.476562 9.78125 -29.625 C 11.363281 -28.78125 13.566406 -27.101562 16.390625 -24.59375 C 19.429688 -21.820312 22.082031 -20.015625 24.34375 -19.171875 C 26.601562 -18.335938 29.085938 -18.226562 31.796875 -18.84375 C 33.722656 -19.28125 35.132812 -19.921875 36.03125 -20.765625 C 36.9375 -21.609375 37.453125 -22.757812 37.578125 -24.21875 C 37.640625 -24.601562 37.59375 -25.15625 37.4375 -25.875 C 37.039062 -27.59375 35.859375 -28.976562 33.890625 -30.03125 C 31.921875 -31.082031 28.988281 -32.21875 25.09375 -33.4375 C 20.945312 -34.832031 17.53125 -36.144531 14.84375 -37.375 C 12.164062 -38.601562 9.6875 -40.347656 7.40625 -42.609375 C 5.125 -44.878906 3.578125 -47.800781 2.765625 -51.375 C 2.203125 -53.875 2.03125 -56.429688 2.25 -59.046875 C 2.632812 -64.316406 4.804688 -68.976562 8.765625 -73.03125 C 12.734375 -77.09375 17.71875 -79.804688 23.71875 -81.171875 Z M 23.71875 -81.171875 "/></g></g></g><g fill="#000000" fill-opacity="1"><g transform="translate(515.193687, 460.653713)"><g><path d="M 25.390625 -65.421875 C 33.609375 -67.285156 40.523438 -67.257812 46.140625 -65.34375 C 51.765625 -63.4375 55.285156 -59.375 56.703125 -53.15625 C 57.242188 -50.789062 57.425781 -48.015625 57.25 -44.828125 L 56.203125 -29.015625 C 56.210938 -28.703125 56.265625 -28.335938 56.359375 -27.921875 C 56.617188 -26.765625 57.210938 -26.296875 58.140625 -26.515625 C 58.992188 -26.703125 59.640625 -27.242188 60.078125 -28.140625 C 60.515625 -29.035156 60.84375 -29.507812 61.0625 -29.5625 C 61.414062 -29.632812 61.773438 -29.445312 62.140625 -29 C 62.503906 -28.5625 62.757812 -28.019531 62.90625 -27.375 C 63.40625 -25.457031 63.117188 -23.320312 62.046875 -20.96875 C 60.972656 -18.625 59.296875 -16.515625 57.015625 -14.640625 C 54.734375 -12.773438 52.050781 -11.492188 48.96875 -10.796875 C 45.25 -9.953125 41.910156 -9.90625 38.953125 -10.65625 C 36.003906 -11.414062 33.734375 -13.003906 32.140625 -15.421875 C 30.578125 -12.359375 28.488281 -9.796875 25.875 -7.734375 C 23.257812 -5.679688 20.269531 -4.273438 16.90625 -3.515625 C 13.125 -2.648438 9.773438 -2.65625 6.859375 -3.53125 C 3.953125 -4.40625 1.613281 -5.863281 -0.15625 -7.90625 C -1.9375 -9.945312 -3.117188 -12.253906 -3.703125 -14.828125 C -3.960938 -15.972656 -4.109375 -17.101562 -4.140625 -18.21875 C -4.117188 -23.414062 -2.484375 -27.703125 0.765625 -31.078125 C 4.023438 -34.453125 8.300781 -36.738281 13.59375 -37.9375 C 19.53125 -39.289062 25.566406 -39.6875 31.703125 -39.125 L 32.796875 -46.8125 C 33.023438 -50.03125 32.953125 -52.457031 32.578125 -54.09375 C 32.117188 -55.789062 31.253906 -56.945312 29.984375 -57.5625 C 28.722656 -58.1875 26.984375 -58.242188 24.765625 -57.734375 C 25.453125 -56.691406 25.9375 -55.5625 26.21875 -54.34375 C 26.8125 -51.695312 26.328125 -49.179688 24.765625 -46.796875 C 23.210938 -44.410156 20.578125 -42.796875 16.859375 -41.953125 C 13.359375 -41.160156 10.445312 -41.304688 8.125 -42.390625 C 5.8125 -43.472656 4.394531 -45.164062 3.875 -47.46875 C 3.0625 -51.039062 4.390625 -54.457031 7.859375 -57.71875 C 11.328125 -60.976562 17.171875 -63.546875 25.390625 -65.421875 Z M 26.75 -31.5625 C 24.75 -31.113281 23.300781 -29.976562 22.40625 -28.15625 C 21.507812 -26.332031 21.265625 -24.523438 21.671875 -22.734375 C 21.929688 -21.585938 22.410156 -20.722656 23.109375 -20.140625 C 23.816406 -19.554688 24.664062 -19.375 25.65625 -19.59375 C 26.59375 -19.8125 27.53125 -20.414062 28.46875 -21.40625 C 29.40625 -22.40625 29.945312 -23.710938 30.09375 -25.328125 L 30.921875 -32.171875 C 29.648438 -32.109375 28.257812 -31.90625 26.75 -31.5625 Z M 26.75 -31.5625 "/></g></g></g><g fill="#000000" fill-opacity="1"><g transform="translate(585.31873, 444.713738)"><g><path d="M 50.703125 -71.171875 C 54.773438 -72.097656 58.296875 -71.71875 61.265625 -70.03125 C 64.242188 -68.34375 66.097656 -65.890625 66.828125 -62.671875 C 67.609375 -59.242188 67.179688 -56.328125 65.546875 -53.921875 C 63.910156 -51.515625 61.410156 -49.929688 58.046875 -49.171875 C 55.054688 -48.484375 52.5625 -48.722656 50.5625 -49.890625 C 48.570312 -51.066406 47.394531 -52.625 47.03125 -54.5625 C 46.28125 -54.550781 45.734375 -54.128906 45.390625 -53.296875 C 45.054688 -52.460938 44.835938 -50.941406 44.734375 -48.734375 C 44.691406 -47.285156 44.300781 -45.882812 43.5625 -44.53125 C 48.507812 -45.269531 52.367188 -44.976562 55.140625 -43.65625 C 57.921875 -42.332031 59.644531 -40.207031 60.3125 -37.28125 C 60.632812 -35.851562 60.707031 -34.363281 60.53125 -32.8125 L 60.453125 -29.296875 C 60.390625 -28.910156 60.421875 -28.429688 60.546875 -27.859375 C 60.773438 -26.859375 61.351562 -26.460938 62.28125 -26.671875 C 63.132812 -26.867188 63.78125 -27.410156 64.21875 -28.296875 C 64.65625 -29.191406 64.976562 -29.660156 65.1875 -29.703125 C 65.539062 -29.785156 65.878906 -29.617188 66.203125 -29.203125 C 66.523438 -28.785156 66.757812 -28.253906 66.90625 -27.609375 C 67.457031 -25.554688 67.289062 -23.394531 66.40625 -21.125 C 65.53125 -18.851562 63.894531 -16.789062 61.5 -14.9375 C 59.101562 -13.082031 56.007812 -11.722656 52.21875 -10.859375 C 47.644531 -9.828125 43.578125 -10.101562 40.015625 -11.6875 C 36.460938 -13.28125 34.265625 -15.9375 33.421875 -19.65625 C 33.109375 -21.019531 33.046875 -22.628906 33.234375 -24.484375 L 34.046875 -30.296875 C 34.117188 -31.660156 34.085938 -32.628906 33.953125 -33.203125 C 33.742188 -34.128906 33.285156 -34.738281 32.578125 -35.03125 C 31.867188 -35.320312 30.875 -35.328125 29.59375 -35.046875 L 27.4375 -34.546875 L 26.203125 -17.6875 C 26.191406 -16.769531 26.257812 -15.988281 26.40625 -15.34375 C 26.613281 -14.425781 26.953125 -13.738281 27.421875 -13.28125 C 27.898438 -12.820312 28.519531 -12.421875 29.28125 -12.078125 C 29.894531 -11.691406 30.34375 -11.359375 30.625 -11.078125 C 30.914062 -10.796875 31.046875 -10.394531 31.015625 -9.875 C 30.867188 -8.851562 30.304688 -8.007812 29.328125 -7.34375 C 28.359375 -6.675781 26.769531 -6.085938 24.5625 -5.578125 L 0.109375 -0.03125 C -1.753906 0.394531 -3.179688 0.398438 -4.171875 -0.015625 C -5.171875 -0.429688 -5.640625 -1.171875 -5.578125 -2.234375 C -5.492188 -3.148438 -4.914062 -4.070312 -3.84375 -5 C -2.894531 -5.800781 -2.15625 -6.675781 -1.625 -7.625 C -1.09375 -8.582031 -0.765625 -9.972656 -0.640625 -11.796875 L 3.46875 -69.015625 C 3.550781 -69.703125 3.546875 -70.265625 3.453125 -70.703125 C 3.273438 -71.484375 2.929688 -72.082031 2.421875 -72.5 C 1.910156 -72.914062 1.273438 -73.300781 0.515625 -73.65625 C -0.335938 -74.050781 -0.96875 -74.425781 -1.375 -74.78125 C -1.789062 -75.144531 -1.976562 -75.710938 -1.9375 -76.484375 C -1.882812 -78.222656 0.0390625 -80.160156 3.84375 -82.296875 C 7.644531 -84.441406 11.757812 -86.019531 16.1875 -87.03125 C 20.332031 -87.96875 23.546875 -87.882812 25.828125 -86.78125 C 28.109375 -85.675781 29.5625 -83.769531 30.1875 -81.0625 C 30.550781 -79.414062 30.65625 -77.78125 30.5 -76.15625 L 28.09375 -43.609375 L 31.625 -44.40625 C 33.0625 -44.726562 34.128906 -45.414062 34.828125 -46.46875 C 35.523438 -47.53125 35.9375 -48.941406 36.0625 -50.703125 C 36.644531 -56.398438 38.050781 -60.96875 40.28125 -64.40625 C 42.507812 -67.84375 45.984375 -70.097656 50.703125 -71.171875 Z M 50.703125 -71.171875 "/></g></g></g><g fill="#000000" fill-opacity="1"><g transform="translate(660.268897, 427.676975)"><g><path d="M 15.3125 -63.125 C 19.457031 -64.070312 22.671875 -63.976562 24.953125 -62.84375 C 27.242188 -61.707031 28.695312 -59.785156 29.3125 -57.078125 C 29.6875 -55.429688 29.796875 -53.796875 29.640625 -52.171875 L 27.0625 -17.875 C 27.039062 -16.96875 27.101562 -16.191406 27.25 -15.546875 C 27.457031 -14.628906 27.800781 -13.941406 28.28125 -13.484375 C 28.757812 -13.023438 29.378906 -12.617188 30.140625 -12.265625 C 30.753906 -11.878906 31.203125 -11.546875 31.484375 -11.265625 C 31.773438 -10.992188 31.90625 -10.597656 31.875 -10.078125 C 31.726562 -9.054688 31.164062 -8.207031 30.1875 -7.53125 C 29.21875 -6.863281 27.625 -6.28125 25.40625 -5.78125 L 0.953125 -0.21875 C -0.898438 0.207031 -2.328125 0.210938 -3.328125 -0.203125 C -4.328125 -0.617188 -4.796875 -1.359375 -4.734375 -2.421875 C -4.628906 -3.347656 -4.046875 -4.269531 -2.984375 -5.1875 C -2.046875 -5.988281 -1.304688 -6.867188 -0.765625 -7.828125 C -0.222656 -8.785156 0.0976562 -10.175781 0.203125 -12 L 2.484375 -45.109375 C 2.554688 -45.796875 2.539062 -46.359375 2.4375 -46.796875 C 2.257812 -47.578125 1.9375 -48.15625 1.46875 -48.53125 C 1.007812 -48.914062 0.367188 -49.285156 -0.453125 -49.640625 C -1.296875 -50.035156 -1.910156 -50.414062 -2.296875 -50.78125 C -2.679688 -51.15625 -2.847656 -51.71875 -2.796875 -52.46875 C -2.742188 -54.21875 -0.820312 -56.179688 2.96875 -58.359375 C 6.769531 -60.535156 10.882812 -62.125 15.3125 -63.125 Z M 17.109375 -88.46875 C 19.890625 -89.101562 22.414062 -88.722656 24.6875 -87.328125 C 26.957031 -85.929688 28.394531 -83.90625 29 -81.25 C 29.425781 -79.394531 29.359375 -77.460938 28.796875 -75.453125 C 28.242188 -73.441406 27.21875 -71.679688 25.71875 -70.171875 C 24.21875 -68.671875 22.394531 -67.675781 20.25 -67.1875 C 17.53125 -66.570312 15.050781 -66.96875 12.8125 -68.375 C 10.582031 -69.789062 9.125 -71.84375 8.4375 -74.53125 C 8.03125 -76.320312 8.09375 -78.195312 8.625 -80.15625 C 9.15625 -82.125 10.144531 -83.875 11.59375 -85.40625 C 13.050781 -86.9375 14.890625 -87.957031 17.109375 -88.46875 Z M 17.109375 -88.46875 "/></g></g></g><g fill="#000000" fill-opacity="1"><g transform="translate(699.513171, 418.756442)"><g><path d="M 35.359375 -66.234375 C 36.710938 -66.546875 37.832031 -66.5 38.71875 -66.09375 C 39.601562 -65.6875 40.160156 -64.984375 40.390625 -63.984375 C 40.453125 -63.703125 40.488281 -63.179688 40.5 -62.421875 C 40.28125 -59.066406 38.492188 -57.007812 35.140625 -56.25 L 28.921875 -54.84375 L 26.90625 -26.515625 C 26.789062 -25.367188 26.863281 -24.226562 27.125 -23.09375 C 27.414062 -21.800781 27.972656 -20.984375 28.796875 -20.640625 C 29.628906 -20.296875 30.6875 -20.269531 31.96875 -20.5625 C 33.113281 -20.820312 34.515625 -21.296875 36.171875 -21.984375 C 36.972656 -22.390625 37.695312 -22.664062 38.34375 -22.8125 C 38.84375 -22.925781 39.253906 -22.847656 39.578125 -22.578125 C 39.898438 -22.316406 40.117188 -21.9375 40.234375 -21.4375 C 40.628906 -20.007812 39.96875 -18.03125 38.25 -15.5 C 36.53125 -12.96875 33.976562 -10.550781 30.59375 -8.25 C 27.21875 -5.945312 23.28125 -4.285156 18.78125 -3.265625 C 13.914062 -2.160156 9.765625 -2.378906 6.328125 -3.921875 C 2.890625 -5.472656 0.734375 -8.175781 -0.140625 -12.03125 C -0.546875 -13.820312 -0.648438 -15.601562 -0.453125 -17.375 L 1.578125 -40.15625 C 1.660156 -41.457031 1.617188 -42.460938 1.453125 -43.171875 C 1.128906 -44.609375 0.515625 -45.75 -0.390625 -46.59375 C -1.296875 -47.4375 -2.476562 -48.257812 -3.9375 -49.0625 C -5.238281 -49.8125 -6.179688 -50.476562 -6.765625 -51.0625 C -7.347656 -51.65625 -7.632812 -52.441406 -7.625 -53.421875 C -7.550781 -54.410156 -7.101562 -55.257812 -6.28125 -55.96875 C -5.46875 -56.6875 -4.0625 -57.273438 -2.0625 -57.734375 L 3.9375 -59.09375 L 9.15625 -67.375 C 10.96875 -70.269531 12.753906 -72.40625 14.515625 -73.78125 C 16.285156 -75.15625 18.738281 -76.195312 21.875 -76.90625 C 26.382812 -77.9375 29.03125 -76.738281 29.8125 -73.3125 C 30.050781 -72.238281 30.132812 -71.207031 30.0625 -70.21875 L 29.671875 -64.953125 Z M 35.359375 -66.234375 "/></g></g></g></g></g></g></g></g></svg>
