<?xml version="1.0" ?>

<!DOCTYPE svg  PUBLIC '-//W3C//DTD SVG 1.1//EN'  'http://www.w3.org/Graphics/SVG/1.1/DTD/svg11.dtd'>

<svg fill="#000000" width="800px" height="800px" viewBox="0 0 270.92 270.92" style="shape-rendering:geometricPrecision; text-rendering:geometricPrecision; image-rendering:optimizeQuality; fill-rule:evenodd; clip-rule:evenodd" version="1.1" xml:space="preserve" xmlns="http://www.w3.org/2000/svg" xmlns:xlink="http://www.w3.org/1999/xlink">

<defs>

<style type="text/css">
   <![CDATA[
    .fil0 {fill:black;fill-rule:nonzero}
   ]]>
  </style>

</defs>

<g id="Layer_x0020_1">

<path class="fil0" d="M202.48 194.37c0,1.91 -0.74,3.7 -2.09,5.06l-29.01 29.14c-1.36,1.37 -3.17,2.11 -5.1,2.11l-84.29 0c-7.47,0 -13.54,-6.06 -13.54,-13.53l0 -163.38c0,-7.47 6.07,-13.55 13.54,-13.55l106.95 0c7.47,0 13.54,6.08 13.54,13.55l0 140.6zm-67.02 -2.9l-45.21 0c-1.95,0 -3.53,1.58 -3.53,3.53 0,1.95 1.58,3.52 3.53,3.52l45.21 0c1.95,0 3.53,-1.57 3.53,-3.52 0,-1.95 -1.58,-3.53 -3.53,-3.53zm-45.21 -24.97l90.43 0c1.96,0 3.53,-1.57 3.53,-3.52 0,-1.95 -1.57,-3.53 -3.53,-3.53l-90.43 0c-1.95,0 -3.53,1.58 -3.53,3.53 0,1.95 1.58,3.52 3.53,3.52zm0 -29.45l90.43 0c1.96,0 3.53,-1.58 3.53,-3.53 0,-1.95 -1.57,-3.53 -3.53,-3.53l-90.43 0c-1.95,0 -3.53,1.58 -3.53,3.53 0,1.95 1.58,3.53 3.53,3.53zm0 -29.37l90.43 0c1.96,0 3.53,-1.58 3.53,-3.52 0,-1.96 -1.57,-3.53 -3.53,-3.53l-90.43 0c-1.95,0 -3.53,1.57 -3.53,3.53 0,1.94 1.58,3.52 3.53,3.52zm0 -28.23l90.43 0c1.96,0 3.53,-1.57 3.53,-3.51 0,-1.98 -1.57,-3.53 -3.53,-3.53l-90.43 0c-1.95,0 -3.53,1.55 -3.53,3.53 0,1.94 1.58,3.51 3.53,3.51zm102.17 111.88l-25.67 0c-1.95,0 -3.52,1.55 -3.52,3.52l0 26.82c0,1.95 1.57,3.53 3.52,3.53 1.94,0 3.53,-1.58 3.53,-3.53l0 -23.3 22.14 0c1.95,0 3.53,-1.59 3.53,-3.52 0,-1.97 -1.58,-3.52 -3.53,-3.52zm-3.48 -158.16l-106.95 0c-11.35,0 -20.59,9.25 -20.59,20.6l0 163.38c0,11.34 9.24,20.59 20.59,20.59l84.29 0c3.82,0 7.41,-1.49 10.1,-4.19l29.01 -29.14c2.67,-2.69 4.14,-6.25 4.14,-10.04l0 -140.6c0,-11.35 -9.23,-20.6 -20.59,-20.6z"/>

</g>

</svg>
