<svg xmlns="http://www.w3.org/2000/svg" xmlns:xlink="http://www.w3.org/1999/xlink" width="96" zoomAndPan="magnify" viewBox="0 0 72 72" height="96" preserveAspectRatio="xMidYMid meet" version="1.0"><defs><clipPath id="f5fb3c2b62"><path d="M 2 5.671875 L 68 5.671875 L 68 66.421875 L 2 66.421875 Z M 2 5.671875 " clip-rule="nonzero"/></clipPath></defs><g clip-path="url(#f5fb3c2b62)"><path fill="#000000" d="M 65.398438 35.996094 C 72 19.257812 63.78125 5.679688 47.03125 5.679688 C 40.636719 5.679688 33.925781 7.65625 27.703125 11.039062 C 32.269531 8.976562 37.035156 7.808594 41.621094 7.808594 C 56.132812 7.808594 63.265625 19.578125 57.546875 34.085938 C 51.828125 48.597656 35.417969 60.367188 20.898438 60.367188 C 8.859375 60.367188 1.898438 52.261719 3.152344 41.222656 C 0 55.472656 8.160156 66.320312 23.128906 66.320312 C 39.878906 66.320312 58.800781 52.738281 65.398438 35.996094 Z M 29.980469 31.226562 C 29.875 31.257812 29.777344 31.289062 29.671875 31.324219 L 9.480469 10.15625 L 27.945312 32.828125 C 27.886719 32.917969 27.859375 33.003906 27.820312 33.101562 C 27.550781 33.730469 27.472656 34.464844 27.65625 35.191406 C 28.109375 36.929688 29.875 37.964844 31.609375 37.519531 C 32.96875 37.171875 33.90625 35.996094 34.035156 34.679688 C 34.042969 34.554688 34.054688 34.40625 34.042969 34.28125 L 51.527344 24.085938 L 32.800781 31.820312 C 32.6875 31.734375 32.570312 31.65625 32.453125 31.589844 C 31.726562 31.160156 30.84375 31.003906 29.980469 31.226562 Z M 30.4375 33.023438 C 30 33.136719 29.660156 33.4375 29.503906 33.828125 C 29.378906 34.097656 29.351562 34.417969 29.441406 34.726562 C 29.632812 35.476562 30.398438 35.933594 31.136719 35.734375 C 31.726562 35.582031 32.121094 35.078125 32.179688 34.507812 C 32.199219 34.351562 32.179688 34.195312 32.144531 34.03125 C 32.042969 33.652344 31.800781 33.363281 31.503906 33.179688 C 31.195312 32.992188 30.816406 32.925781 30.4375 33.023438 Z M 30.4375 33.023438 " fill-opacity="1" fill-rule="evenodd"/></g></svg>
