<svg xmlns="http://www.w3.org/2000/svg" xmlns:xlink="http://www.w3.org/1999/xlink" width="96" zoomAndPan="magnify" viewBox="0 0 72 72" height="96" preserveAspectRatio="xMidYMid meet" version="1.0"><defs><clipPath id="f2f9c40bd9"><path d="M 0.785156 2.148438 L 71.285156 2.148438 L 71.285156 69.648438 L 0.785156 69.648438 Z M 0.785156 2.148438 " clip-rule="nonzero"/></clipPath><clipPath id="190903b60d"><path d="M 10.976562 29.632812 L 20.503906 29.632812 L 20.503906 39.160156 L 10.976562 39.160156 Z M 10.976562 29.632812 " clip-rule="nonzero"/></clipPath><clipPath id="58cb6062b9"><path d="M 15.738281 29.632812 C 13.109375 29.632812 10.976562 31.765625 10.976562 34.398438 C 10.976562 37.027344 13.109375 39.160156 15.738281 39.160156 C 18.371094 39.160156 20.503906 37.027344 20.503906 34.398438 C 20.503906 31.765625 18.371094 29.632812 15.738281 29.632812 Z M 15.738281 29.632812 " clip-rule="nonzero"/></clipPath><clipPath id="df6158b452"><path d="M 0.976562 0.632812 L 10.503906 0.632812 L 10.503906 10.160156 L 0.976562 10.160156 Z M 0.976562 0.632812 " clip-rule="nonzero"/></clipPath><clipPath id="79dcd5f814"><path d="M 5.738281 0.632812 C 3.109375 0.632812 0.976562 2.765625 0.976562 5.398438 C 0.976562 8.027344 3.109375 10.160156 5.738281 10.160156 C 8.371094 10.160156 10.503906 8.027344 10.503906 5.398438 C 10.503906 2.765625 8.371094 0.632812 5.738281 0.632812 Z M 5.738281 0.632812 " clip-rule="nonzero"/></clipPath><clipPath id="8582beb068"><rect x="0" width="11" y="0" height="11"/></clipPath><clipPath id="979d61028a"><path d="M 27.132812 29.632812 L 36.660156 29.632812 L 36.660156 39.160156 L 27.132812 39.160156 Z M 27.132812 29.632812 " clip-rule="nonzero"/></clipPath><clipPath id="f85df16761"><path d="M 31.894531 29.632812 C 29.265625 29.632812 27.132812 31.765625 27.132812 34.398438 C 27.132812 37.027344 29.265625 39.160156 31.894531 39.160156 C 34.527344 39.160156 36.660156 37.027344 36.660156 34.398438 C 36.660156 31.765625 34.527344 29.632812 31.894531 29.632812 Z M 31.894531 29.632812 " clip-rule="nonzero"/></clipPath><clipPath id="2e9dcfb9bd"><path d="M 0.132812 0.632812 L 9.660156 0.632812 L 9.660156 10.160156 L 0.132812 10.160156 Z M 0.132812 0.632812 " clip-rule="nonzero"/></clipPath><clipPath id="b071f8a10e"><path d="M 4.894531 0.632812 C 2.265625 0.632812 0.132812 2.765625 0.132812 5.398438 C 0.132812 8.027344 2.265625 10.160156 4.894531 10.160156 C 7.527344 10.160156 9.660156 8.027344 9.660156 5.398438 C 9.660156 2.765625 7.527344 0.632812 4.894531 0.632812 Z M 4.894531 0.632812 " clip-rule="nonzero"/></clipPath><clipPath id="8c62d96cf0"><rect x="0" width="10" y="0" height="11"/></clipPath><clipPath id="49f0dfb0ad"><path d="M 43.289062 29.632812 L 52.816406 29.632812 L 52.816406 39.160156 L 43.289062 39.160156 Z M 43.289062 29.632812 " clip-rule="nonzero"/></clipPath><clipPath id="e6245270e8"><path d="M 48.050781 29.632812 C 45.421875 29.632812 43.289062 31.765625 43.289062 34.398438 C 43.289062 37.027344 45.421875 39.160156 48.050781 39.160156 C 50.683594 39.160156 52.816406 37.027344 52.816406 34.398438 C 52.816406 31.765625 50.683594 29.632812 48.050781 29.632812 Z M 48.050781 29.632812 " clip-rule="nonzero"/></clipPath><clipPath id="0754603e2b"><path d="M 0.289062 0.632812 L 9.816406 0.632812 L 9.816406 10.160156 L 0.289062 10.160156 Z M 0.289062 0.632812 " clip-rule="nonzero"/></clipPath><clipPath id="0e52fff021"><path d="M 5.050781 0.632812 C 2.421875 0.632812 0.289062 2.765625 0.289062 5.398438 C 0.289062 8.027344 2.421875 10.160156 5.050781 10.160156 C 7.683594 10.160156 9.816406 8.027344 9.816406 5.398438 C 9.816406 2.765625 7.683594 0.632812 5.050781 0.632812 Z M 5.050781 0.632812 " clip-rule="nonzero"/></clipPath><clipPath id="4de5a64723"><rect x="0" width="10" y="0" height="11"/></clipPath></defs><g clip-path="url(#f2f9c40bd9)"><path fill="#000000" d="M 71.085938 67.628906 L 65.71875 49.519531 C 67.628906 45.21875 68.59375 40.644531 68.59375 35.898438 C 68.59375 26.882812 65.070312 18.40625 58.667969 12.03125 C 52.269531 5.65625 43.761719 2.144531 34.710938 2.144531 C 25.65625 2.144531 17.148438 5.65625 10.746094 12.03125 C 4.347656 18.40625 0.820312 26.882812 0.820312 35.898438 C 0.820312 44.914062 4.347656 53.390625 10.746094 59.765625 C 17.144531 66.140625 25.65625 69.652344 34.707031 69.652344 C 39.050781 69.652344 43.277344 68.84375 47.277344 67.253906 C 48.667969 66.699219 50.03125 66.050781 51.339844 65.3125 L 69.195312 69.609375 C 69.320312 69.636719 69.445312 69.652344 69.566406 69.652344 C 69.996094 69.652344 70.410156 69.476562 70.714844 69.160156 C 71.101562 68.753906 71.242188 68.167969 71.085938 67.628906 Z M 51.46875 62.101562 C 51.050781 62 50.632812 62.074219 50.292969 62.273438 C 50.28125 62.28125 50.273438 62.285156 50.261719 62.292969 C 48.933594 63.074219 47.53125 63.757812 46.101562 64.324219 C 42.476562 65.769531 38.644531 66.5 34.707031 66.5 C 26.5 66.5 18.785156 63.316406 12.984375 57.535156 C 7.183594 51.757812 3.988281 44.074219 3.988281 35.898438 C 3.988281 27.726562 7.183594 20.042969 12.984375 14.261719 C 18.789062 8.484375 26.5 5.300781 34.707031 5.300781 C 42.914062 5.300781 50.628906 8.484375 56.429688 14.261719 C 62.230469 20.042969 65.425781 27.726562 65.425781 35.898438 C 65.425781 40.382812 64.476562 44.695312 62.605469 48.730469 C 62.601562 48.734375 62.601562 48.738281 62.601562 48.742188 C 62.445312 49.078125 62.40625 49.46875 62.519531 49.851562 L 67.273438 65.902344 Z M 51.46875 62.101562 " fill-opacity="1" fill-rule="nonzero"/></g><g clip-path="url(#190903b60d)"><g clip-path="url(#58cb6062b9)"><g transform="matrix(1, 0, 0, 1, 10, 29)"><g clip-path="url(#8582beb068)"><g clip-path="url(#df6158b452)"><g clip-path="url(#79dcd5f814)"><path fill="#000000" d="M 0.976562 0.632812 L 10.503906 0.632812 L 10.503906 10.160156 L 0.976562 10.160156 Z M 0.976562 0.632812 " fill-opacity="1" fill-rule="nonzero"/></g></g></g></g></g></g><g clip-path="url(#979d61028a)"><g clip-path="url(#f85df16761)"><g transform="matrix(1, 0, 0, 1, 27, 29)"><g clip-path="url(#8c62d96cf0)"><g clip-path="url(#2e9dcfb9bd)"><g clip-path="url(#b071f8a10e)"><path fill="#000000" d="M 0.132812 0.632812 L 9.660156 0.632812 L 9.660156 10.160156 L 0.132812 10.160156 Z M 0.132812 0.632812 " fill-opacity="1" fill-rule="nonzero"/></g></g></g></g></g></g><g clip-path="url(#49f0dfb0ad)"><g clip-path="url(#e6245270e8)"><g transform="matrix(1, 0, 0, 1, 43, 29)"><g clip-path="url(#4de5a64723)"><g clip-path="url(#0754603e2b)"><g clip-path="url(#0e52fff021)"><path fill="#000000" d="M 0.289062 0.632812 L 9.816406 0.632812 L 9.816406 10.160156 L 0.289062 10.160156 Z M 0.289062 0.632812 " fill-opacity="1" fill-rule="nonzero"/></g></g></g></g></g></g></svg>
