<svg xmlns="http://www.w3.org/2000/svg" xmlns:xlink="http://www.w3.org/1999/xlink" width="96" zoomAndPan="magnify" viewBox="0 0 72 72" height="96" preserveAspectRatio="xMidYMid meet" version="1.0"><defs><clipPath id="7822e896b8"><path d="M 0 4.5 L 72 4.5 L 72 67.5 L 0 67.5 Z M 0 4.5 " clip-rule="nonzero"/></clipPath><clipPath id="4e7a8fa125"><path d="M 2.855469 14.558594 C -2.984375 24.175781 1.128906 33.539062 6.296875 38.507812 L 36.519531 67.5 L 66.101562 38.609375 C 70.90625 33.265625 72.75 27.597656 71.726562 21.285156 C 70.3125 12.550781 63.117188 5.777344 54.226562 4.808594 C 48.773438 4.222656 43.507812 5.765625 39.398438 9.179688 C 38.289062 10.097656 37.300781 11.125 36.441406 12.242188 C 35.417969 10.972656 34.21875 9.808594 32.863281 8.777344 C 28.136719 5.183594 22.117188 3.757812 16.339844 4.867188 C 10.863281 5.925781 5.949219 9.457031 2.855469 14.558594 Z M 2.855469 14.558594 " clip-rule="nonzero"/></clipPath></defs><g clip-path="url(#7822e896b8)"><g clip-path="url(#4e7a8fa125)"><path stroke-linecap="butt" transform="matrix(0.75, 0, 0, 0.75, -0.000000000000010658, 4.500002)" fill="none" stroke-linejoin="miter" d="M 3.807292 13.411456 C -3.979167 26.234374 1.505208 38.718749 8.395834 45.343749 L 48.69271 84.000001 L 88.13542 45.479166 C 94.541671 38.354166 97.000004 30.796874 95.635421 22.380207 C 93.750004 10.734373 84.156254 1.703123 72.302086 0.411456 C 65.031253 -0.369794 58.010419 1.687498 52.531252 6.239581 C 51.052085 7.46354 49.734377 8.833331 48.588544 10.322915 C 47.22396 8.630206 45.625002 7.078123 43.81771 5.703123 C 37.515627 0.911456 29.489585 -0.989586 21.786459 0.489581 C 14.484376 1.901039 7.932292 6.609373 3.807292 13.411456 Z M 3.807292 13.411456 " stroke="#ffffff" stroke-width="4" stroke-opacity="1" stroke-miterlimit="4"/></g></g></svg>
